<mxfile host="app.diagrams.net" modified="2023-11-28T13:42:19.631Z" agent="Mozilla/5.0 (Windows NT 10.0; Win64; x64) AppleWebKit/537.36 (KHTML, like Gecko) Chrome/119.0.0.0 Safari/537.36" etag="sCDsFqIn4-faWng8pRBb" version="22.1.4" type="github" pages="2">
  <diagram name="Page-1" id="9361dd3d-8414-5efd-6122-117bd74ce7a7">
    <mxGraphModel dx="1194" dy="760" grid="1" gridSize="10" guides="1" tooltips="1" connect="1" arrows="1" fold="1" page="0" pageScale="1.5" pageWidth="826" pageHeight="1169" background="none" math="0" shadow="0">
      <root>
        <mxCell id="0" />
        <mxCell id="1" parent="0" />
        <mxCell id="cwuz5KzSYuqJIbJIRlFv-89" value="User&lt;br&gt;" style="shape=umlActor;verticalLabelPosition=bottom;verticalAlign=top;html=1;" vertex="1" parent="1">
          <mxGeometry x="230" y="10" width="30" height="60" as="geometry" />
        </mxCell>
        <mxCell id="cwuz5KzSYuqJIbJIRlFv-90" value="Nurse" style="shape=umlActor;verticalLabelPosition=bottom;verticalAlign=top;html=1;" vertex="1" parent="1">
          <mxGeometry x="230" y="160" width="30" height="60" as="geometry" />
        </mxCell>
        <mxCell id="cwuz5KzSYuqJIbJIRlFv-91" value="Doctor" style="shape=umlActor;verticalLabelPosition=bottom;verticalAlign=top;html=1;outlineConnect=0;" vertex="1" parent="1">
          <mxGeometry x="230" y="330" width="30" height="60" as="geometry" />
        </mxCell>
        <mxCell id="cwuz5KzSYuqJIbJIRlFv-92" value="Admin" style="shape=umlActor;verticalLabelPosition=bottom;verticalAlign=top;html=1;outlineConnect=0;" vertex="1" parent="1">
          <mxGeometry x="220" y="650" width="30" height="60" as="geometry" />
        </mxCell>
        <mxCell id="cwuz5KzSYuqJIbJIRlFv-93" value="pharmacist" style="shape=umlActor;verticalLabelPosition=bottom;verticalAlign=top;html=1;" vertex="1" parent="1">
          <mxGeometry x="230" y="490" width="30" height="60" as="geometry" />
        </mxCell>
      </root>
    </mxGraphModel>
  </diagram>
  <diagram id="eGhCQS5-KHyF_k9U1JaC" name="Page-2">
    <mxGraphModel dx="1194" dy="1929" grid="1" gridSize="10" guides="1" tooltips="1" connect="1" arrows="1" fold="1" page="1" pageScale="1" pageWidth="827" pageHeight="1169" math="0" shadow="0">
      <root>
        <mxCell id="0" />
        <mxCell id="1" parent="0" />
        <mxCell id="E_6yYmMKHir1UK03Lmbf-12" style="rounded=0;orthogonalLoop=1;jettySize=auto;html=1;" edge="1" parent="1" source="E_6yYmMKHir1UK03Lmbf-1" target="E_6yYmMKHir1UK03Lmbf-11">
          <mxGeometry relative="1" as="geometry" />
        </mxCell>
        <mxCell id="E_6yYmMKHir1UK03Lmbf-1" value="Creer un patient" style="ellipse;whiteSpace=wrap;html=1;" vertex="1" parent="1">
          <mxGeometry x="390" y="222.5" width="94" height="70" as="geometry" />
        </mxCell>
        <mxCell id="E_6yYmMKHir1UK03Lmbf-3" value="Payer une concultation" style="ellipse;whiteSpace=wrap;html=1;" vertex="1" parent="1">
          <mxGeometry x="374" y="820" width="100" height="70" as="geometry" />
        </mxCell>
        <mxCell id="E_6yYmMKHir1UK03Lmbf-4" value="Enregistrer une vente" style="ellipse;whiteSpace=wrap;html=1;" vertex="1" parent="1">
          <mxGeometry x="520" y="330" width="90" height="60" as="geometry" />
        </mxCell>
        <mxCell id="E_6yYmMKHir1UK03Lmbf-5" value="Imprimer une facture" style="ellipse;whiteSpace=wrap;html=1;" vertex="1" parent="1">
          <mxGeometry x="520" y="430" width="90" height="60" as="geometry" />
        </mxCell>
        <mxCell id="E_6yYmMKHir1UK03Lmbf-14" style="rounded=0;orthogonalLoop=1;jettySize=auto;html=1;" edge="1" parent="1" source="E_6yYmMKHir1UK03Lmbf-6" target="E_6yYmMKHir1UK03Lmbf-8">
          <mxGeometry relative="1" as="geometry" />
        </mxCell>
        <mxCell id="E_6yYmMKHir1UK03Lmbf-6" value="Produire un bilan periodique" style="ellipse;whiteSpace=wrap;html=1;" vertex="1" parent="1">
          <mxGeometry x="410" y="70" width="100" height="70" as="geometry" />
        </mxCell>
        <mxCell id="E_6yYmMKHir1UK03Lmbf-7" value="Bilan des ventes" style="ellipse;whiteSpace=wrap;html=1;" vertex="1" parent="1">
          <mxGeometry x="570" y="20" width="100" height="70" as="geometry" />
        </mxCell>
        <mxCell id="E_6yYmMKHir1UK03Lmbf-8" value="Bilan des achats" style="ellipse;whiteSpace=wrap;html=1;" vertex="1" parent="1">
          <mxGeometry x="570" y="110" width="100" height="70" as="geometry" />
        </mxCell>
        <mxCell id="E_6yYmMKHir1UK03Lmbf-23" style="edgeStyle=orthogonalEdgeStyle;rounded=0;orthogonalLoop=1;jettySize=auto;html=1;" edge="1" parent="1" source="E_6yYmMKHir1UK03Lmbf-9" target="E_6yYmMKHir1UK03Lmbf-19">
          <mxGeometry relative="1" as="geometry" />
        </mxCell>
        <mxCell id="E_6yYmMKHir1UK03Lmbf-9" value="Creer un service" style="ellipse;whiteSpace=wrap;html=1;" vertex="1" parent="1">
          <mxGeometry x="230" y="570" width="100" height="60" as="geometry" />
        </mxCell>
        <mxCell id="E_6yYmMKHir1UK03Lmbf-11" value="Categoriser un patient" style="ellipse;whiteSpace=wrap;html=1;" vertex="1" parent="1">
          <mxGeometry x="560" y="225" width="100" height="65" as="geometry" />
        </mxCell>
        <mxCell id="E_6yYmMKHir1UK03Lmbf-13" style="rounded=0;orthogonalLoop=1;jettySize=auto;html=1;entryX=-0.008;entryY=0.6;entryDx=0;entryDy=0;entryPerimeter=0;" edge="1" parent="1" source="E_6yYmMKHir1UK03Lmbf-6" target="E_6yYmMKHir1UK03Lmbf-7">
          <mxGeometry relative="1" as="geometry" />
        </mxCell>
        <mxCell id="E_6yYmMKHir1UK03Lmbf-15" value="Planifier un service" style="ellipse;whiteSpace=wrap;html=1;" vertex="1" parent="1">
          <mxGeometry x="230" y="730" width="94" height="60" as="geometry" />
        </mxCell>
        <mxCell id="E_6yYmMKHir1UK03Lmbf-16" value="Alerter les produits perimes" style="ellipse;whiteSpace=wrap;html=1;" vertex="1" parent="1">
          <mxGeometry x="350" y="-60" width="120" height="80" as="geometry" />
        </mxCell>
        <mxCell id="E_6yYmMKHir1UK03Lmbf-18" style="rounded=0;orthogonalLoop=1;jettySize=auto;html=1;" edge="1" parent="1" source="E_6yYmMKHir1UK03Lmbf-17" target="E_6yYmMKHir1UK03Lmbf-16">
          <mxGeometry relative="1" as="geometry" />
        </mxCell>
        <mxCell id="E_6yYmMKHir1UK03Lmbf-17" value="Parametrer la duree des alertes de produits perimes" style="ellipse;whiteSpace=wrap;html=1;" vertex="1" parent="1">
          <mxGeometry x="190" width="120" height="80" as="geometry" />
        </mxCell>
        <mxCell id="E_6yYmMKHir1UK03Lmbf-19" value="Creer un examen" style="ellipse;whiteSpace=wrap;html=1;" vertex="1" parent="1">
          <mxGeometry x="374" y="570" width="100" height="60" as="geometry" />
        </mxCell>
        <mxCell id="E_6yYmMKHir1UK03Lmbf-20" value="Creer un consultation" style="ellipse;whiteSpace=wrap;html=1;" vertex="1" parent="1">
          <mxGeometry x="374" y="640" width="100" height="60" as="geometry" />
        </mxCell>
        <mxCell id="E_6yYmMKHir1UK03Lmbf-21" value="Creer un accouchement" style="ellipse;whiteSpace=wrap;html=1;" vertex="1" parent="1">
          <mxGeometry x="380" y="500" width="100" height="60" as="geometry" />
        </mxCell>
        <mxCell id="E_6yYmMKHir1UK03Lmbf-22" style="rounded=0;orthogonalLoop=1;jettySize=auto;html=1;entryX=0;entryY=0.65;entryDx=0;entryDy=0;entryPerimeter=0;" edge="1" parent="1" source="E_6yYmMKHir1UK03Lmbf-9" target="E_6yYmMKHir1UK03Lmbf-21">
          <mxGeometry relative="1" as="geometry" />
        </mxCell>
        <mxCell id="E_6yYmMKHir1UK03Lmbf-24" style="rounded=0;orthogonalLoop=1;jettySize=auto;html=1;entryX=0.08;entryY=0.267;entryDx=0;entryDy=0;entryPerimeter=0;" edge="1" parent="1" source="E_6yYmMKHir1UK03Lmbf-9" target="E_6yYmMKHir1UK03Lmbf-20">
          <mxGeometry relative="1" as="geometry" />
        </mxCell>
        <mxCell id="E_6yYmMKHir1UK03Lmbf-25" value="Payer un service" style="ellipse;whiteSpace=wrap;html=1;" vertex="1" parent="1">
          <mxGeometry x="233" y="850" width="94" height="60" as="geometry" />
        </mxCell>
        <mxCell id="E_6yYmMKHir1UK03Lmbf-26" value="Creer un produit" style="ellipse;whiteSpace=wrap;html=1;" vertex="1" parent="1">
          <mxGeometry x="284" y="-230" width="90" height="60" as="geometry" />
        </mxCell>
        <mxCell id="E_6yYmMKHir1UK03Lmbf-27" value="Creer une categorie de produits" style="ellipse;whiteSpace=wrap;html=1;" vertex="1" parent="1">
          <mxGeometry x="284" y="-330" width="90" height="60" as="geometry" />
        </mxCell>
        <mxCell id="E_6yYmMKHir1UK03Lmbf-28" value="Creer un fournisseur&lt;br&gt;de produits" style="ellipse;whiteSpace=wrap;html=1;" vertex="1" parent="1">
          <mxGeometry x="284" y="-430" width="90" height="60" as="geometry" />
        </mxCell>
      </root>
    </mxGraphModel>
  </diagram>
</mxfile>
